<?xml version="1.0" encoding="UTF-8" standalone="no"?>
<!-- Created with Inkscape (http://www.inkscape.org/) -->

<svg
   width="149.605mm"
   height="61.118847mm"
   viewBox="0 0 149.605 61.118847"
   version="1.1"
   id="svg5"
   xml:space="preserve"
   xmlns="http://www.w3.org/2000/svg"
   xmlns:svg="http://www.w3.org/2000/svg"><defs
     id="defs2" /><g
     id="layer1"
     transform="translate(175.21756,-114.69017)"><path
       id="path407"
       style="fill:#0a3161;fill-opacity:1;stroke:#000000;stroke-width:3.04088;stroke-linecap:round;stroke-linejoin:round;stroke-dasharray:none;stroke-opacity:1"
       d="m -79.1294,120.62066 c -0.5668,0 -0.7303,0.0648 -1.17696,0.46821 -0.44689,0.40375 -0.66829,0.84344 -1.60557,3.18344 -0.59801,1.49298 -0.83765,6.18792 -0.8844,6.21511 -0.0467,0.0273 -0.96903,-3.78285 -1.69818,-4.24824 -1.71695,-1.09579 -3.18963,-1.86068 -3.8031,-1.97479 -1.19682,-0.22266 -2.10037,0.60764 -2.09258,1.92234 0.003,0.40232 0.10793,1.03137 0.2346,1.39769 0.17883,0.51719 1.6019,2.79098 2.73106,4.36435 0.0835,0.11641 -0.85354,1.39003 -3.11513,4.23368 -1.77919,2.2371 -3.457,4.43098 -3.72786,4.87514 -1.50659,2.47031 -1.25628,5.43483 0.64639,7.65765 0.75436,0.88132 1.54327,1.27123 2.56376,1.26705 0.76313,-0.004 1.08216,-0.0998 2.78452,-0.8424 2.65064,-1.15622 7.98205,-3.41164 8.31097,-3.51603 0.24593,-0.0781 0.54357,0.51135 3.28836,6.51238 1.65998,3.62931 3.07746,6.67365 3.14978,6.76478 0.0178,0.0224 0.20981,0.0403 0.49691,0.0574 v 7.57155 7.623 h 4.90482 4.904805 v -4.77218 -9.0874 l 9.544306,2.87616 9.543306,1.43808 0.0346,4.80583 0.0346,4.80582 5.004773,0.0347 5.00477,0.0346 v -7.69031 -7.61808 c 0.004,-6e-4 0.0429,-0.002 0.0436,-0.002 0.0486,-0.0487 0.0891,-1.30725 0.0891,-2.79739 v -2.70928 l 0.961164,1.4571 0.961164,1.45809 4.266236,-0.75461 c 1.239552,-0.88944 0.22429,-2.53619 0.204,-2.60503 -0.13679,-0.46397 -7.629248,-12.14289 -8.080295,-12.59515 -0.662317,-0.66409 -1.434961,-1.06386 -2.412295,-1.24921 -0.451397,-0.0857 -5.753787,-0.13522 -14.577779,-0.13561 -9.122569,-5.4e-4 -14.050795,-0.0473 -14.399605,-0.13754 -0.45189,-0.1168 -1.15917,-0.77123 -4.78505,-4.42868 -2.37755,-2.39826 -4.35501,-4.50241 -4.48115,-4.76823 -0.34303,-0.72288 -0.60782,-2.55026 -0.73251,-5.04835 -0.12573,-2.51901 -0.24908,-2.96517 -1.00274,-3.6269 -0.39605,-0.34774 -0.58375,-0.41672 -1.13241,-0.41672 z" /><path
       style="fill:#0a3161;fill-opacity:1;fill-rule:evenodd;stroke:#000000;stroke-width:2.1793;stroke-linecap:round;stroke-linejoin:round;stroke-dasharray:none;stroke-opacity:1;paint-order:stroke fill markers"
       d="M -67.76543,174.27597 V 163.34658"
       id="path5428" /><path
       style="fill:#0a3161;fill-opacity:1;fill-rule:evenodd;stroke:#000000;stroke-width:2.17931;stroke-linecap:square;stroke-linejoin:round;stroke-dasharray:none;stroke-opacity:1;paint-order:stroke fill markers"
       d="M -38.867183,173.70073 V 162.77135"
       id="path5428-5" /><path
       style="fill:none;fill-opacity:1;fill-rule:evenodd;stroke:#000000;stroke-width:2.17931;stroke-linecap:square;stroke-linejoin:round;stroke-dasharray:none;stroke-opacity:1;paint-order:stroke fill markers"
       d="m -81.57098,146.08966 c 2.684559,-1.62991 5.36898,-3.25974 6.279747,-5.84797 0.910768,-2.58823 0.04794,-6.13542 -0.815047,-9.68328"
       id="path7683" /><path
       style="fill:#b31942;fill-opacity:1;fill-rule:evenodd;stroke:none;stroke-width:1.23674;stroke-linecap:square;stroke-linejoin:round;stroke-dasharray:none;stroke-opacity:1;paint-order:stroke fill markers"
       d="m -71.36063,165.45034 c 0,-6.8092 -0.0246,-7.12619 -0.60196,-7.74071 -0.33108,-0.35241 -1.8184,-3.26854 -3.30516,-6.48026 l -2.7032,-5.83954 1.41785,-1.35233 c 2.1994,-2.09778 2.72237,-3.33449 2.73618,-6.4703 l 0.0115,-2.62632 2.80641,2.69329 c 1.54353,1.48131 3.09665,2.75857 3.45139,2.83835 0.35474,0.0798 7.12218,0.17907 15.038765,0.22065 12.962388,0.0681 14.467669,0.12407 15.136823,0.56273 0.40867,0.26794 2.506218,3.24298 4.661206,6.61121 4.165466,6.5106 4.158176,6.48867 2.174818,6.54317 -0.556117,0.0153 -0.958137,-0.29553 -1.647851,-1.27405 -0.978444,-1.38814 -1.778551,-1.64044 -2.810555,-0.88628 -0.531137,0.38814 -0.562317,0.89185 -0.640957,10.35416 l -0.0827,9.94618 h -0.995894 -0.995904 v -5.4647 -5.4647 h -1.150454 -1.150454 v 5.4647 5.4647 h -1.110261 -1.110274 l -0.20393,-4.38614 c -0.12842,-2.76222 -0.331737,-4.51752 -0.549137,-4.741 -0.18985,-0.19518 -2.542915,-0.6886 -5.22901,-1.09652 -3.251552,-0.49375 -6.479434,-1.21627 -9.657936,-2.16176 -4.99538,-1.48596 -5.959437,-1.64468 -6.529121,-1.07499 -0.24825,0.24825 -0.34514,2.18588 -0.34514,6.90277 v 6.55764 h -0.862834 -0.86285 v -4.62076 c 0,-2.63519 -0.12794,-4.85982 -0.29774,-5.17709 -0.16894,-0.31567 -0.60001,-0.55631 -0.99653,-0.55631 -0.39653,0 -0.82759,0.24064 -0.99654,0.55631 -0.1698,0.31727 -0.29773,2.5419 -0.29773,5.17709 v 4.62076 h -1.15046 -1.15047 z"
       id="path7758" /><path
       style="fill:#ffffff;fill-opacity:1;fill-rule:evenodd;stroke:none;stroke-width:1.13771;stroke-linecap:square;stroke-linejoin:round;stroke-dasharray:none;stroke-opacity:1;paint-order:stroke fill markers"
       id="path9402-8"
       d="m -89.189147,144.14408 -1.956674,-1.03577 -1.962513,1.02466 0.380432,-2.18098 -1.580966,-1.54982 2.191794,-0.31215 0.985422,-1.9825 0.974172,1.98806 2.18999,0.32456 -1.589723,1.54084 z"
       transform="matrix(0.95776051,0,0,0.95776051,4.9043879,2.7740282)" /><path
       style="fill:#000000;stroke-width:0.154159;paint-order:stroke fill markers"
       d="m -169.62548,173.59902 c -0.72677,-0.23542 -1.59378,-1.14141 -1.82235,-1.9043 -0.13939,-0.46525 -0.18899,-2.87987 -0.18899,-9.19972 0,-5.68156 -0.0576,-8.84418 -0.17101,-9.38584 -0.094,-0.4493 -0.57444,-1.68443 -1.06754,-2.74473 -1.2716,-2.73429 -1.96018,-5.0018 -2.34045,-7.70714 -0.0532,-0.37843 1.12259,-10.20537 1.9843,-11.91375 0.62444,-1.23797 1.74403,-1.5172 2.61024,-0.651 0.51829,0.51829 0.47964,-0.0343 -0.15469,1.49923 -1.75583,4.24495 -1.9189,10.36021 -0.45217,14.76532 0.21174,0.63591 0.75634,1.95396 1.21024,2.92902 1.4701,3.1581 1.36928,2.27935 1.42834,12.44836 l 0.0522,8.97978 h 3.3835 3.3835 v -5.02559 -5.02559 l 0.52414,-0.52415 0.52414,-0.52414 h 8.96679 c 6.30047,0 9.06692,0.0512 9.30351,0.1722 0.87573,0.44785 0.86914,0.40346 0.87285,5.87855 l 0.003,5.04872 h 3.39151 3.3915 l 4.7e-4,-5.20288 c 9.5e-4,-6.32745 -0.10625,-5.96681 1.95521,-6.59301 1.40384,-0.42643 3.96002,-1.65538 4.72142,-2.26995 l 0.43376,-0.35011 -0.31714,-1.15598 c -0.17443,-0.63579 -0.38589,-1.69828 -0.46993,-2.36108 -0.14536,-1.14651 -0.19094,-1.24765 -0.93761,-2.08033 -1.01409,-1.13092 -1.75838,-2.40359 -2.26123,-3.86649 -0.54558,-1.58722 -0.59339,-3.8952 -0.10266,-4.95579 0.47457,-1.02564 1.19872,-1.77253 2.19103,-2.25983 1.14195,-0.56078 2.80022,-0.60139 3.90497,-0.0956 1.48853,0.68148 2.53645,2.17058 2.70986,3.85071 0.10199,0.98813 0.33523,1.19982 1.48195,1.34503 1.05924,0.13413 1.97302,0.58051 2.72236,1.32984 0.94618,0.94618 1.30397,1.83446 1.30397,3.23734 0,1.40288 -0.35779,2.29116 -1.30397,3.23734 -1.24722,1.24723 -2.79984,1.60707 -5.07746,1.17678 -0.71532,-0.13514 -1.33199,-0.21429 -1.37039,-0.17588 -0.11436,0.11436 0.43872,1.93482 0.89389,2.94224 1.38823,3.07256 4.11789,5.72056 7.23437,7.01795 2.11897,0.88213 3.45042,1.05935 7.95454,1.05878 3.87395,-4.6e-4 4.02868,-0.0121 4.62164,-0.34798 2.13385,-1.20854 1.48547,-4.20813 -0.97165,-4.49509 -1.97184,-0.23029 -2.73735,-0.40656 -3.6788,-0.84712 -2.43121,-1.13768 -4.17082,-3.22354 -4.82646,-5.78705 -0.29336,-1.14702 -0.3091,-1.70495 -0.3091,-10.95284 0,-8.03469 -0.0413,-9.98445 -0.23526,-11.11334 -1.03026,-5.9956 -5.18517,-10.77451 -10.94765,-12.59181 -3.88328,-1.22466 -7.53242,-0.82386 -9.68683,1.06396 l -0.44363,0.38874 0.38145,0.41439 c 1.04424,1.13442 1.1754,1.92675 0.44059,2.66156 -0.35023,0.35024 -0.5902,0.45062 -1.07724,0.45062 -0.53515,0 -0.7113,-0.0916 -1.20659,-0.6276 -3.16669,-3.4268 -8.29124,-2.13002 -9.13351,2.31124 -0.2032,1.07149 -0.2032,8.66478 0,9.73626 0.32943,1.73709 1.36291,3.09662 2.90277,3.81853 0.7325,0.34341 1.08125,0.40809 2.18219,0.4047 1.19107,-0.004 1.39855,-0.0515 2.27928,-0.52539 1.63309,-0.87873 2.55767,-2.28239 2.75652,-4.1849 0.0829,-0.79293 0.18713,-1.07188 0.52798,-1.41273 0.56206,-0.56206 2.69459,1.13527 2.39402,2.6131 -0.34224,1.68264 -1.05206,3.00479 -2.27105,4.23013 -4.40504,4.428 -11.83617,2.48574 -13.61125,-3.55756 -0.20464,-0.69671 -0.24594,-1.7489 -0.24594,-6.26575 0,-6.07777 0.0544,-6.47311 1.13934,-8.27432 l 0.53391,-0.88642 -3.26463,9.5e-4 c -4.5904,10e-4 -6.683,0.35214 -9.70725,1.62761 -1.38087,0.58237 -1.59932,0.61677 -2.19462,0.34554 -0.72606,-0.33082 -1.0229,-1.25763 -0.65877,-2.05681 0.28397,-0.62326 2.31164,-1.55565 4.85695,-2.23341 2.52972,-0.67361 3.96549,-0.76083 12.57654,-0.76402 l 8.13749,-0.003 0.99364,-0.76158 c 2.15137,-1.64895 4.01388,-2.24175 7.01146,-2.23164 4.08538,0.0138 7.72805,1.24246 10.99056,3.70717 l 1.2651,0.95574 0.46248,-0.30436 c 4.4709,-2.94229 10.51122,-0.82347 12.28469,4.3092 0.34669,1.00337 0.35637,1.18217 0.35637,6.58113 0,5.39896 -0.01,5.57775 -0.35637,6.58113 -0.46556,1.34739 -1.31642,2.64414 -2.33564,3.55963 -0.83288,0.7481 -2.59456,1.69027 -3.52055,1.88282 l -0.50867,0.10577 0.0462,5.11187 0.0462,5.11187 0.44308,0.95923 c 0.52436,1.13522 1.75368,2.37325 2.82874,2.8488 0.40063,0.17722 1.44527,0.40997 2.32141,0.51721 1.9939,0.24407 2.9643,0.69161 4.03149,1.85928 2.452045,2.68293 1.4632,7.05931 -1.95735,8.66269 l -0.88437,0.41455 -5.01017,-0.01 c -4.93424,-0.01 -5.03355,-0.016 -6.55177,-0.42334 -2.75293,-0.73854 -5.40561,-2.21271 -7.3611,-4.09076 l -1.04058,-0.99936 v 4.69448 c 0,4.56239 -0.01,4.71378 -0.34686,5.38027 -0.20271,0.40078 -0.62458,0.87883 -1.01514,1.15031 l -0.66828,0.46454 -7.8749,0.044 -7.8749,0.044 -0.8222,-0.40226 c -0.62213,-0.30438 -0.9253,-0.57767 -1.24593,-1.12308 l -0.42373,-0.72082 -0.0472,-4.43208 -0.0472,-4.43208 h -3.30574 -3.30574 v 4.3693 c 0,4.27639 -0.008,4.38373 -0.35869,5.04871 -0.19729,0.37368 -0.6541,0.88754 -1.01515,1.1419 l -0.65645,0.46248 -7.88755,0.0255 c -5.46086,0.0177 -8.05132,-0.0275 -8.41984,-0.14689 z m 15.25449,-6.89289 v -4.00814 h -2.15823 -2.15823 v 4.00814 4.00814 h 2.15823 2.15823 z m 26.97787,-1.40028 c 0,-2.97463 -0.052,-5.38165 -0.11562,-5.34894 -1.01084,0.52002 -3.17976,1.50965 -3.62274,1.65298 l -0.5781,0.18706 v 4.45866 4.45866 h 2.15823 2.15823 z m 6.14402,-14.6978 c 0.73672,-0.38098 0.98265,-1.27909 0.56918,-2.07865 -0.25263,-0.48854 -0.74905,-0.71929 -1.8213,-0.84659 -1.79615,-0.21325 -3.22973,-1.64762 -3.44302,-3.4449 -0.12699,-1.07002 -0.35802,-1.56663 -0.8463,-1.81913 -1.17658,-0.60844 -2.29833,0.16559 -2.29833,1.5859 0,0.8403 0.40227,2.27715 0.8867,3.16722 0.53103,0.97568 1.79554,2.23924 2.77372,2.77163 1.46885,0.79945 3.34237,1.09734 4.17935,0.66452 z m 11.55453,-12.46667 c 0.69292,-0.46344 1.41599,-1.34765 1.85392,-2.26709 0.22472,-0.47179 0.257,-1.21729 0.257,-5.93514 v -5.39557 l -0.52875,-0.97521 c -1.18891,-2.19285 -3.60165,-3.25878 -5.87784,-2.59678 -1.53594,0.44671 -1.54182,0.46888 -0.52109,1.96277 1.026,1.50161 1.86692,3.23888 2.42894,5.01797 0.63891,2.0225 0.87599,4.11888 0.87599,7.74574 v 3.25279 l 0.42394,-0.18271 c 0.23317,-0.10049 0.72272,-0.38254 1.08789,-0.62677 z"
       id="path5524" /><path
       style="fill:none;fill-rule:evenodd;stroke:#000000;stroke-width:2.83559;stroke-linecap:round;stroke-dasharray:none;paint-order:stroke fill markers"
       d="m -172.32899,131.99944 c 1.29487,-2.17774 2.58976,-4.35551 4.35557,-6.18017 1.76581,-1.82467 4.0024,-3.2961 6.239,-4.76755"
       id="path5682" /><path
       style="fill:none;fill-rule:evenodd;stroke:#000000;stroke-width:2.36323;stroke-linecap:round;stroke-dasharray:none;paint-order:stroke fill markers"
       d="m -141.63363,142.25628 c 0.495,1.57781 0.98994,3.15546 1.67054,4.56877 0.68059,1.41332 1.54673,2.66226 3.73193,3.3348 2.18519,0.67255 5.68922,0.76881 9.19319,0.86508"
       id="path5867" /><path
       style="fill:#b31942;fill-opacity:1;fill-rule:evenodd;stroke:#000000;stroke-width:3.33554;stroke-linecap:round;stroke-dasharray:none;paint-order:stroke fill markers"
       d="m -113.36952,164.30933 c -4.04086,-0.42623 -7.66269,-2.71468 -9.9523,-6.28832 -0.76515,-1.19424 -1.96852,-4.16696 -1.76756,-4.36644 0.0455,-0.0452 0.44037,-0.0131 0.87739,0.0714 1.14314,0.22093 2.93758,0.20236 3.74221,-0.0387 0.85709,-0.25679 2.16602,-1.38525 2.6051,-2.24591 0.73421,-1.43919 0.61026,-3.53429 -0.28568,-4.82884 -0.63662,-0.91985 -1.85735,-1.67707 -3.09671,-1.9209 -0.57661,-0.11344 -1.15028,-0.30816 -1.27483,-0.43271 -0.12455,-0.12455 -0.31927,-0.69822 -0.43271,-1.27482 -0.64422,-3.27448 -4.01279,-4.86217 -6.93802,-3.27006 -1.56761,0.8532 -2.24627,2.14485 -2.25544,4.29263 -0.007,1.61553 0.31137,2.88497 1.12064,4.46978 l 0.61437,1.2031 -1.4463,-0.11865 c -4.35563,-0.35733 -5.79231,-1.03093 -6.90993,-3.23977 -0.47058,-0.93005 -1.55221,-3.92142 -1.45358,-4.02005 0.0361,-0.0361 0.52854,-0.18616 1.09439,-0.33354 2.84589,-0.74127 5.18881,-3.0783 5.93212,-5.91722 0.28402,-1.08475 0.0978,-1.68295 -0.80465,-2.58544 -1.22938,-1.22938 -1.86029,-0.9462 -2.1915,0.98368 -0.27677,1.61266 -0.99428,2.78883 -2.22223,3.64281 -0.95821,0.66639 -1.0998,0.70984 -2.50501,0.76877 -1.3258,0.0556 -1.59464,0.011 -2.44755,-0.40632 -1.11828,-0.54712 -1.73989,-1.22302 -2.36326,-2.56965 -0.42987,-0.92862 -0.45275,-1.14222 -0.52214,-4.87529 -0.11221,-6.03661 0.20154,-7.48172 1.94919,-8.97764 1.95272,-1.67145 4.72271,-1.44973 6.85959,0.54907 0.7702,0.72043 1.01169,0.84722 1.61372,0.84722 0.5554,0 0.79907,-0.10591 1.13067,-0.49142 0.66283,-0.77059 0.53374,-1.6045 -0.40426,-2.61157 l -0.43066,-0.46237 0.75279,-0.55361 c 1.25927,-0.92608 2.49372,-1.30609 4.53454,-1.39592 6.73935,-0.29665 12.97546,4.27194 15.13108,11.08506 0.64102,2.02603 0.77068,4.44266 0.78268,14.58758 0.005,4.62302 0.0859,8.55365 0.186,9.09366 0.29418,1.58655 1.25664,3.30554 2.54163,4.53945 1.37681,1.32208 2.8593,2.06074 4.6982,2.34089 2.71372,0.41344 3.52947,1.01053 3.53087,2.58445 9e-4,0.93095 -0.77381,1.89682 -1.73549,2.16392 -0.7295,0.20263 -6.34174,0.2038 -8.25737,0.002 z"
       id="path6009" /><path
       style="fill:#ffffff;fill-rule:evenodd;stroke:#000000;stroke-width:3.33554;stroke-linecap:round;stroke-dasharray:none;paint-order:stroke fill markers"
       d="m -124.06431,150.37769 c -1.35375,-0.43294 -2.08351,-0.91223 -3.12654,-2.05347 -1.31823,-1.44236 -2.17185,-4.15461 -1.62762,-5.17151 0.37404,-0.69891 0.98202,-0.96991 1.66802,-0.74351 0.65518,0.21623 0.86076,0.56887 1.17336,2.01274 0.24819,1.14638 0.56493,1.72004 1.31171,2.37572 0.59006,0.51808 0.95424,0.66649 2.6767,1.09077 1.37963,0.33984 1.84009,1.59422 0.88636,2.41459 -0.5909,0.50827 -1.532,0.532 -2.96199,0.0747 z"
       id="path6011" /><path
       style="fill:#b31942;fill-opacity:1;fill-rule:evenodd;stroke:#000000;stroke-width:3.33554;stroke-linecap:round;stroke-dasharray:none;paint-order:stroke fill markers"
       d="m -111.14585,135.75169 c -6.2e-4,-3.46006 -0.22672,-5.57238 -0.81336,-7.59748 -0.44652,-1.54141 -1.56619,-3.89952 -2.61003,-5.4969 -0.34315,-0.52513 -0.58627,-1.01567 -0.54027,-1.09011 0.046,-0.0744 0.49099,-0.27063 0.98888,-0.436 1.11467,-0.37023 2.61393,-0.271 3.61401,0.2392 0.85491,0.43615 2.0262,1.6767 2.54708,2.69771 0.37656,0.73811 0.38395,0.88163 0.3125,6.06529 -0.0811,5.88425 -0.0616,5.77918 -1.3332,7.18666 -0.53634,0.59367 -1.72167,1.38928 -2.06979,1.38928 -0.0524,0 -0.0955,-1.33094 -0.0958,-2.95765 z"
       id="path6013" /><path
       style="fill:#0a3161;fill-opacity:1;fill-rule:evenodd;stroke:#000000;stroke-width:3.33554;stroke-linecap:round;stroke-dasharray:none;paint-order:stroke fill markers"
       d="m -168.5743,161.5318 c -0.0779,-10.2643 0.0656,-9.11975 -1.62947,-12.99512 -1.52852,-3.4946 -1.76001,-4.64356 -1.76658,-8.76789 -0.007,-4.56708 0.23998,-5.79366 1.63707,-8.12103 2.08201,-3.46836 3.63141,-5.21628 6.47994,-7.31023 2.29691,-1.68844 5.43873,-2.88348 8.63425,-3.28416 1.64484,-0.20625 7.40767,-0.24235 7.30854,-0.0458 -0.0367,0.0728 -0.34132,0.68864 -0.67687,1.36846 l -0.61009,1.23604 v 6.35674 6.35674 l 0.56766,1.15997 c 1.00571,2.05511 2.56263,3.4796 4.63268,4.23863 l 0.97982,0.35928 0.64021,1.98691 c 2.01208,6.24461 3.89227,7.61048 11.06303,8.03675 1.3867,0.0824 2.55768,0.18628 2.60217,0.23077 0.0445,0.0445 0.20529,0.73661 0.35731,1.53803 0.15203,0.80143 0.35349,1.65985 0.44769,1.90761 0.13603,0.35778 0.10687,0.50152 -0.14166,0.69846 -0.58608,0.46443 -3.66417,1.95253 -4.83925,2.33955 -1.92706,0.63467 -1.82237,0.27416 -1.88189,6.4808 l -0.0515,5.3673 h -3.34762 -3.34762 v -4.8295 c 0,-3.03041 -0.0717,-5.03518 -0.19249,-5.38166 -0.14624,-0.41951 -0.34776,-0.5953 -0.83874,-0.73167 -0.39792,-0.11053 -4.03499,-0.17988 -9.46539,-0.18048 l -8.81915,-9.5e-4 -0.49524,0.47448 -0.49525,0.47448 v 5.08767 5.08767 h -3.3411 -3.34111 z"
       id="path6084" /><path
       style="fill:#0a3161;fill-opacity:1;fill-rule:evenodd;stroke:#000000;stroke-width:3.33554;stroke-linecap:round;stroke-dasharray:none;paint-order:stroke fill markers"
       d="m -158.64434,166.69665 v -3.97296 h 2.11892 2.11891 v 3.97296 3.97297 h -2.11891 -2.11892 z"
       id="path6086" /><path
       style="fill:#0a3161;fill-opacity:1;fill-rule:evenodd;stroke:#000000;stroke-width:3.33554;stroke-linecap:round;stroke-dasharray:none;paint-order:stroke fill markers"
       d="m -131.62819,166.26712 v -4.40251 l 0.3973,-0.12295 c 0.21851,-0.0676 1.11998,-0.4591 2.00325,-0.86994 l 1.60596,-0.74698 0.11523,3.81569 c 0.0634,2.09863 0.11542,4.47122 0.11566,5.27244 l 3.7e-4,1.45675 h -2.11891 -2.11891 z"
       id="path6088" /><path
       style="fill:#000000;fill-opacity:0;fill-rule:evenodd;stroke:#ffffff;stroke-width:4.99801;stroke-linecap:round;stroke-dasharray:none;stroke-opacity:1;paint-order:stroke fill markers"
       id="path9556"
       d="m 11.203257,39.211401 0.684411,-3.656344 -2.6240054,-2.636638 3.6888844,-0.478959 1.69673,-3.310344 1.595445,3.360331 3.672643,0.590734 -2.702845,2.555758 0.573087,3.675437 -3.265895,-1.780786 z"
       transform="matrix(0.47283433,0,0,0.47283433,-170.0335,121.58145)" /><path
       style="fill:#000000;fill-opacity:0;fill-rule:evenodd;stroke:#ffffff;stroke-width:4.99801;stroke-linecap:round;stroke-dasharray:none;stroke-opacity:1;paint-order:stroke fill markers"
       id="path9556-2"
       d="m 11.203257,39.211401 0.684411,-3.656344 -2.6240054,-2.636638 3.6888844,-0.478959 1.69673,-3.310344 1.595445,3.360331 3.672643,0.590734 -2.702845,2.555758 0.573087,3.675437 -3.265895,-1.780786 z"
       transform="matrix(0.47283433,0,0,0.47283433,-68.25637,133.36799)" /><path
       style="fill:#000000;fill-opacity:0;fill-rule:evenodd;stroke:#ffffff;stroke-width:4.99801;stroke-linecap:round;stroke-dasharray:none;stroke-opacity:1;paint-order:stroke fill markers"
       id="path9556-26"
       d="m 11.203257,39.211401 0.684411,-3.656344 -2.6240054,-2.636638 3.6888844,-0.478959 1.69673,-3.310344 1.595445,3.360331 3.672643,0.590734 -2.702845,2.555758 0.573087,3.675437 -3.265895,-1.780786 z"
       transform="matrix(0.47283433,0,0,0.47283433,-51.36052,133.36799)" /><path
       style="fill:#000000;fill-opacity:0;fill-rule:evenodd;stroke:#ffffff;stroke-width:4.99801;stroke-linecap:round;stroke-dasharray:none;stroke-opacity:1;paint-order:stroke fill markers"
       id="path9556-5"
       d="m 11.203257,39.211401 0.684411,-3.656344 -2.6240054,-2.636638 3.6888844,-0.478959 1.69673,-3.310344 1.595445,3.360331 3.672643,0.590734 -2.702845,2.555758 0.573087,3.675437 -3.265895,-1.780786 z"
       transform="matrix(0.47283433,0,0,0.47283433,-158.75758,134.42587)" /><path
       style="fill:#000000;fill-opacity:0;fill-rule:evenodd;stroke:#ffffff;stroke-width:4.99801;stroke-linecap:round;stroke-dasharray:none;stroke-opacity:1;paint-order:stroke fill markers"
       id="path9556-1"
       d="m 11.203257,39.211401 0.684411,-3.656344 -2.6240054,-2.636638 3.6888844,-0.478959 1.69673,-3.310344 1.595445,3.360331 3.672643,0.590734 -2.702845,2.555758 0.573087,3.675437 -3.265895,-1.780786 z"
       transform="matrix(0.37378723,0,0,0.37378723,-132.58915,119.80049)" /></g></svg>
