<?xml version="1.0" encoding="UTF-8" standalone="no"?>
<!-- Created with Inkscape (http://www.inkscape.org/) -->

<svg
   width="158.77261mm"
   height="125.02934mm"
   viewBox="0 0 158.77261 125.02933"
   version="1.1"
   id="svg5"
   xml:space="preserve"
   inkscape:version="1.2 (dc2aeda, 2022-05-15)"
   sodipodi:docname="elephant.svg"
   inkscape:export-filename="elephant.svg"
   inkscape:export-xdpi="96"
   inkscape:export-ydpi="96"
   xmlns:inkscape="http://www.inkscape.org/namespaces/inkscape"
   xmlns:sodipodi="http://sodipodi.sourceforge.net/DTD/sodipodi-0.dtd"
   xmlns="http://www.w3.org/2000/svg"
   xmlns:svg="http://www.w3.org/2000/svg"><sodipodi:namedview
     id="namedview7"
     pagecolor="#505050"
     bordercolor="#eeeeee"
     borderopacity="1"
     inkscape:showpageshadow="0"
     inkscape:pageopacity="0"
     inkscape:pagecheckerboard="0"
     inkscape:deskcolor="#505050"
     inkscape:document-units="mm"
     showgrid="false"
     inkscape:zoom="0.70849933"
     inkscape:cx="225.82943"
     inkscape:cy="244.17807"
     inkscape:window-width="971"
     inkscape:window-height="656"
     inkscape:window-x="217"
     inkscape:window-y="37"
     inkscape:window-maximized="0"
     inkscape:current-layer="layer1" /><defs
     id="defs2"><inkscape:path-effect
       effect="bspline"
       id="path-effect5869"
       is_visible="true"
       lpeversion="1"
       weight="33.333333"
       steps="2"
       helper_size="0"
       apply_no_weight="true"
       apply_with_weight="true"
       only_selected="false" /><inkscape:path-effect
       effect="bspline"
       id="path-effect5684"
       is_visible="true"
       lpeversion="1"
       weight="33.333333"
       steps="2"
       helper_size="0"
       apply_no_weight="true"
       apply_with_weight="true"
       only_selected="false" /></defs><g
     inkscape:label="Layer 1"
     inkscape:groupmode="layer"
     id="layer1"
     transform="translate(-33.849216,-44.055905)"><path
       style="fill:#000000;stroke-width:0.326032;paint-order:stroke fill markers"
       d="m 45.675942,168.64263 c -1.53705,-0.49788 -3.37068,-2.41397 -3.85408,-4.02741 -0.2948,-0.98396 -0.39971,-6.09065 -0.39971,-19.45655 0,-12.01595 -0.12187,-18.7046 -0.36166,-19.85015 -0.19891,-0.95024 -1.2149,-3.56242 -2.25775,-5.80485 -2.68931,-5.78276 -4.1456,-10.57834 -4.94984,-16.29988 -0.1125,-0.80035 2.37417,-21.583406 4.19661,-25.196463 1.32063,-2.618189 3.68847,-3.208728 5.52041,-1.376789 1.09613,1.096131 1.0144,-0.0726 -0.32714,3.170724 -3.71342,8.977658 -4.05831,21.910868 -0.9563,31.227248 0.4478,1.34489 1.59959,4.13246 2.55953,6.19462 3.10914,6.67908 2.8959,4.82061 3.02082,26.3271 l 0.11031,18.99138 h 7.15578 7.15578 v -10.62865 -10.62865 l 1.10851,-1.10851 1.10851,-1.10851 h 18.96391 c 13.32489,0 19.175668,0.10829 19.676048,0.36419 1.85208,0.94716 1.83814,0.85327 1.846,12.43258 l 0.007,10.67755 h 7.17271 7.17271 l 0.001,-11.00359 c 0.002,-13.38196 -0.22471,-12.61925 4.13507,-13.94359 2.96899,-0.90186 8.37508,-3.50098 9.98537,-4.80073 l 0.91736,-0.74045 -0.67072,-2.44479 c -0.3689,-1.34464 -0.81613,-3.5917 -0.99386,-4.99346 -0.30743,-2.42477 -0.40383,-2.63866 -1.98296,-4.39972 -2.1447,-2.39178 -3.71881,-5.08336 -4.78229,-8.17725 -1.15385,-3.35682 -1.25496,-8.23799 -0.21711,-10.48102 1.00366,-2.169147 2.53517,-3.748747 4.63381,-4.779337 2.41513,-1.18601 5.92221,-1.27188 8.25865,-0.20222 3.1481,1.44127 5.36436,4.590577 5.7311,8.143897 0.21569,2.0898 0.70898,2.53752 3.13419,2.84462 2.24019,0.28367 4.17275,1.22771 5.75753,2.81248 2.00109,2.00109 2.75778,3.87971 2.75778,6.84668 0,2.96696 -0.75669,4.84558 -2.75778,6.84667 -2.63776,2.63776 -5.9214,3.39879 -10.73836,2.48877 -1.51282,-0.28581 -2.81702,-0.4532 -2.89824,-0.37197 -0.24186,0.24185 0.92786,4.09197 1.89049,6.22255 2.93599,6.49819 8.70895,12.09845 15.30002,14.84232 4.48142,1.86562 7.29731,2.24042 16.8231,2.23921 8.19304,-9.8e-4 8.52028,-0.0257 9.77433,-0.73594 4.51289,-2.55596 3.14162,-8.89981 -2.05495,-9.5067 -4.17026,-0.48703 -5.78923,-0.85983 -7.78032,-1.79157 -5.14177,-2.40608 -8.82089,-6.81749 -10.2075,-12.23907 -0.62042,-2.42583 -0.65372,-3.60581 -0.65372,-23.16422 0,-16.992617 -0.0873,-21.116182 -0.49755,-23.503677 -2.1789,-12.680126 -10.96614,-22.787072 -23.15324,-26.630491 -8.21277,-2.590043 -15.93037,-1.74237 -20.48673,2.250188 l -0.93825,0.822144 0.80674,0.876399 c 2.20847,2.39918 2.48586,4.074892 0.93181,5.628944 -0.74072,0.740729 -1.24822,0.953019 -2.27827,0.953019 -1.13178,0 -1.50433,-0.193778 -2.55183,-1.327324 -6.69724,-7.247341 -17.535188,-4.504788 -19.316508,4.888066 -0.42975,2.266084 -0.42975,18.325176 0,20.59126 0.69672,3.673795 2.88244,6.549055 6.139098,8.075845 1.54916,0.72628 2.28674,0.86306 4.61511,0.85589 2.51901,-0.008 2.95781,-0.10892 4.82046,-1.11115 3.45385,-1.85842 5.40924,-4.82704 5.82979,-8.850668 0.17528,-1.676963 0.39577,-2.266929 1.11663,-2.987792 1.1887,-1.188704 5.69881,2.401005 5.06312,5.526464 -0.7238,3.558626 -2.22501,6.354836 -4.80305,8.946316 -9.31624,9.364827 -25.032388,5.257117 -28.786518,-7.52389 -0.43279,-1.473476 -0.52014,-3.698767 -0.52014,-13.25148 0,-12.853911 0.11513,-13.690011 2.40961,-17.499402 l 1.12917,-1.874685 -6.9044,0.002 c -9.70826,0.0026 -14.1339,0.744746 -20.5299,3.442236 -2.92042,1.231678 -3.38243,1.304419 -4.64142,0.730785 -1.53555,-0.699643 -2.16335,-2.659755 -1.39324,-4.349959 0.60057,-1.318118 4.8889,-3.29005 10.272,-4.723452 5.3501,-1.424613 8.38662,-1.609079 26.59819,-1.615814 l 17.210018,-0.0064 2.10145,-1.610672 c 4.54996,-3.48736 8.48898,-4.741085 14.82859,-4.719707 8.64018,0.02913 16.34408,2.6277 23.24399,7.840323 l 2.67557,2.021297 0.9781,-0.643685 c 9.45552,-6.222669 22.23024,-1.741576 25.98095,9.113549 0.73322,2.12204 0.7537,2.500165 0.7537,13.918462 0,11.418296 -0.0205,11.796422 -0.7537,13.918464 -0.9846,2.8496 -2.7841,5.59212 -4.93966,7.52828 -1.76146,1.58217 -5.48725,3.574767 -7.44562,3.981997 l -1.07578,0.2237 0.0977,10.81112 0.0977,10.81112 0.93707,2.02869 c 1.10899,2.40088 3.70887,5.01919 5.98252,6.02494 0.8473,0.3748 3.05662,0.86704 4.90958,1.09385 4.21689,0.51618 6.26921,1.46269 8.52621,3.9322 5.18584,5.67414 3.09452,14.92977 -4.13961,18.32078 l -1.87035,0.87673 -10.59605,-0.0207 c -10.43545,-0.0203 -10.64547,-0.0339 -13.85637,-0.89533 -5.82218,-1.56195 -11.43236,-4.67968 -15.56804,-8.65157 l -2.20072,-2.11356 v 9.92839 c 0,9.64902 -0.0206,9.9692 -0.73357,11.37875 -0.42872,0.84762 -1.32094,1.85865 -2.14693,2.43281 l -1.41335,0.98246 -16.65468,0.093 -16.65467,0.093 -1.73887,-0.85075 c -1.31574,-0.64373 -1.95693,-1.2217 -2.635018,-2.37521 l -0.89616,-1.52446 -0.0999,-9.37343 -0.0999,-9.37342 h -6.99133 -6.99133 v 9.24064 c 0,9.04416 -0.0161,9.27119 -0.7586,10.67755 -0.41724,0.79031 -1.38336,1.87706 -2.14694,2.41502 l -1.38833,0.97809 -16.68143,0.054 c -11.54921,0.0374 -17.02778,-0.0582 -17.80717,-0.31065 z m 32.26182,-14.57781 v -8.47683 h -4.56445 -4.56445 v 8.47683 8.47684 h 4.56445 4.56445 z m 57.055648,-2.96145 c 0,-6.29107 -0.11003,-11.3817 -0.24452,-11.31251 -2.13785,1.09979 -6.72491,3.19277 -7.66176,3.4959 l -1.22262,0.3956 v 9.42965 9.42965 h 4.56445 4.56445 z m 12.99401,-31.08447 c 1.55811,-0.80573 2.07822,-2.70516 1.20377,-4.39615 -0.53429,-1.03321 -1.58418,-1.52123 -3.85187,-1.79046 -3.79869,-0.45101 -6.83059,-3.48455 -7.28168,-7.28563 -0.26856,-2.263 -0.75717,-3.31328 -1.78983,-3.8473 -2.48837,-1.28678 -4.86075,0.35021 -4.86075,3.35403 0,1.77715 0.85075,4.81596 1.87528,6.69837 1.12309,2.06348 3.7974,4.73578 5.86616,5.86174 3.10648,1.69076 7.06879,2.32077 8.83892,1.4054 z m 24.43674,-26.365837 c 1.46547,-0.98014 2.99469,-2.85016 3.92088,-4.79469 0.47525,-0.997782 0.54352,-2.574448 0.54352,-12.552245 v -11.41113 l -1.11824,-2.062484 c -2.51445,-4.637662 -7.61717,-6.891993 -12.43109,-5.491926 -3.24836,0.944741 -3.2608,0.991621 -1.10206,4.151056 2.1699,3.175777 3.94837,6.849935 5.13698,10.612537 1.35123,4.27741 1.85265,8.711058 1.85265,16.381502 v 6.87935 l 0.89659,-0.38641 c 0.49313,-0.21253 1.52847,-0.80904 2.30077,-1.32556 z"
       id="path5524"
       sodipodi:nodetypes="cssssssscssscccccccsscccccsscsssssssssssssssscssssscsscssscssscssssssssccssssccssscsssssscccsssssccsscssscccsscccccssscscccccccccccscscccccssssssssssssscssssscss" /><path
       style="fill:none;fill-rule:evenodd;stroke:#000000;stroke-width:5.997;stroke-linecap:round;stroke-dasharray:none;paint-order:stroke fill markers"
       d="m 39.958282,80.663449 c 2.738527,-4.605705 5.4771,-9.211488 9.211622,-13.070479 3.734522,-3.858992 8.464691,-6.970945 13.194891,-10.082919"
       id="path5682"
       inkscape:path-effect="#path-effect5684"
       inkscape:original-d="m 39.958282,80.663449 c 2.738839,-4.605519 5.477412,-9.211302 8.215721,-13.817351 4.730626,-3.111812 9.460793,-6.223767 14.190792,-9.336047"
       sodipodi:nodetypes="ccc" /><path
       style="fill:none;fill-rule:evenodd;stroke:#000000;stroke-width:4.998;stroke-linecap:round;stroke-dasharray:none;paint-order:stroke fill markers"
       d="m 104.87606,102.3557 c 1.04688,3.33692 2.09364,6.67349 3.53303,9.66252 1.43939,2.98903 3.27121,5.63042 7.89269,7.05279 4.62148,1.42236 12.03217,1.62596 19.44274,1.82955"
       id="path5867"
       inkscape:path-effect="#path-effect5869"
       inkscape:original-d="m 104.87606,102.3557 c 1.04704,3.33687 2.09382,6.67343 3.1403,10.00972 1.83218,2.64179 3.664,5.28318 5.49557,7.92434 7.41132,0.20387 14.82201,0.40747 22.23259,0.6108"
       sodipodi:nodetypes="cccc" /><path
       style="fill:#b31942;fill-opacity:1;fill-rule:evenodd;stroke:#000000;stroke-width:26.6621;stroke-linecap:round;stroke-dasharray:none;paint-order:stroke fill markers"
       d="m 622.30677,563.13381 c -32.29996,-3.40708 -61.25053,-21.69938 -79.5522,-50.26473 -6.11605,-9.54598 -15.73502,-33.30793 -14.12869,-34.90245 0.36401,-0.36135 3.52,-0.10458 7.0133,0.57049 9.1375,1.76592 23.48105,1.61753 29.91275,-0.30945 6.85101,-2.05261 17.31375,-11.07277 20.82345,-17.95237 5.86885,-11.50389 4.87808,-28.25076 -2.28355,-38.59857 -5.08868,-7.35263 -14.84638,-13.40533 -24.75306,-15.35436 -4.60901,-0.90677 -9.19458,-2.46323 -10.19015,-3.4588 -0.99557,-0.99557 -2.55203,-5.58113 -3.4588,-10.19014 -5.14942,-26.17403 -32.07557,-38.86498 -55.45796,-26.13869 -12.53043,6.81991 -17.9552,17.14454 -18.0285,34.3125 -0.0551,12.91352 2.48888,23.06057 8.95767,35.72842 l 4.91082,9.61689 -11.56076,-0.94844 c -34.81607,-2.85631 -46.29988,-8.24058 -55.23341,-25.89659 -3.76156,-7.43426 -12.40735,-31.3453 -11.61895,-32.1337 0.28825,-0.28826 4.22478,-1.48801 8.74783,-2.66612 22.74814,-5.92513 41.47589,-24.60585 47.41742,-47.29833 2.27026,-8.67079 0.78212,-13.45237 -6.4318,-20.6663 -9.82689,-9.82689 -14.86994,-7.56327 -17.51744,7.86286 -2.21233,12.89056 -7.94758,22.29213 -17.76307,29.11827 -7.65931,5.32664 -8.79104,5.67395 -20.02338,6.14505 -10.59755,0.44446 -12.7465,0.0876 -19.56412,-3.24784 -8.93875,-4.37333 -13.90755,-9.77607 -18.89036,-20.54013 -3.43609,-7.42277 -3.61895,-9.13017 -4.17363,-38.96991 -0.89695,-48.25265 1.61101,-59.80389 15.58055,-71.76129 15.60877,-13.36053 37.75026,-11.58824 54.8311,4.38889 6.15646,5.75864 8.08675,6.77206 12.89896,6.77206 4.4395,0 6.38725,-0.84654 9.03787,-3.92807 5.29821,-6.15954 4.26636,-12.82532 -3.23141,-20.87517 l -3.44242,-3.69588 6.01735,-4.4252 c 10.06574,-7.40244 19.93316,-10.44004 36.24614,-11.15809 53.86994,-2.37118 103.71733,34.14714 120.94794,88.60673 5.12389,16.19473 6.16032,35.51172 6.25624,116.60352 0.0438,36.95343 0.68633,68.37234 1.48671,72.68884 2.35152,12.68181 10.04481,26.42227 20.31613,36.28532 11.00536,10.5679 22.85538,16.47219 37.55437,18.71157 21.69169,3.30472 28.21225,8.0775 28.2234,20.65836 0.007,7.44142 -6.18533,15.16197 -13.87232,17.29702 -5.83116,1.61961 -50.69177,1.62901 -66.00402,0.0141 z"
       id="path6009"
       transform="scale(0.26458333)" /><path
       style="fill:#ffffff;fill-rule:evenodd;stroke:#000000;stroke-width:26.6621;stroke-linecap:round;stroke-dasharray:none;paint-order:stroke fill markers"
       d="m 536.81966,451.77342 c -10.82106,-3.46068 -16.65425,-7.29186 -24.99152,-16.41416 -10.53709,-11.52925 -17.36038,-33.20918 -13.01015,-41.33767 2.98983,-5.58654 7.84966,-7.75277 13.33304,-5.94309 5.2371,1.72839 6.88033,4.54715 9.37909,16.08857 1.98389,9.16336 4.51567,13.74881 10.48497,18.98992 4.71651,4.14116 7.62757,5.32743 21.39573,8.71891 11.02787,2.71648 14.70852,12.74314 7.08499,19.30062 -4.72327,4.06279 -12.24579,4.25243 -23.67615,0.5969 z"
       id="path6011"
       transform="scale(0.26458333)" /><path
       style="fill:#b31942;fill-opacity:1;fill-rule:evenodd;stroke:#000000;stroke-width:26.6621;stroke-linecap:round;stroke-dasharray:none;paint-order:stroke fill markers"
       d="m 640.08132,334.8627 c -0.005,-27.65745 -1.81224,-44.54192 -6.50143,-60.72924 -3.5692,-12.32104 -12.51915,-31.17025 -20.86288,-43.93866 -2.74293,-4.1975 -4.6863,-8.1186 -4.3186,-8.71355 0.36769,-0.59494 3.9247,-2.16324 7.90446,-3.48511 8.90992,-2.9594 20.89409,-2.1662 28.88806,1.91202 6.83361,3.48625 16.19611,13.40241 20.35967,21.56368 3.00996,5.9 3.06907,7.04722 2.4979,48.48192 -0.64837,47.03492 -0.49256,46.19502 -10.65671,57.44551 -4.28716,4.74538 -13.76188,11.10495 -16.54455,11.10495 -0.41907,0 -0.76374,-10.63868 -0.76592,-23.64152 z"
       id="path6013"
       transform="scale(0.26458333)" /><path
       style="fill:#0a3161;fill-opacity:1;fill-rule:evenodd;stroke:#000000;stroke-width:26.6621;stroke-linecap:round;stroke-dasharray:none;paint-order:stroke fill markers"
       d="m 181.03596,540.93206 c -0.62293,-82.04609 0.52425,-72.89732 -13.02496,-103.87454 -12.21792,-27.93351 -14.06835,-37.11756 -14.12086,-70.0847 -0.0582,-36.50627 1.91827,-46.31071 13.0857,-64.91421 16.64222,-27.72378 29.0271,-41.69555 51.79642,-58.43318 18.3599,-13.49628 43.47358,-23.04865 69.01646,-26.25146 13.14778,-1.64859 59.21206,-1.93719 58.41972,-0.366 -0.2936,0.58221 -2.72833,5.50459 -5.41049,10.93861 l -4.87667,9.88004 v 50.81162 50.81162 l 4.53749,9.27204 c 8.03903,16.4272 20.48401,27.81364 37.03062,33.88089 l 7.83208,2.87183 5.11736,15.88201 c 16.08326,49.91531 31.11228,60.83315 88.43064,64.24049 11.08439,0.65892 20.44443,1.48902 20.80008,1.84469 0.35565,0.35565 1.6409,5.88795 2.85611,12.294 1.21521,6.40606 2.82553,13.26775 3.5785,15.2482 1.08732,2.85983 0.85429,4.00874 -1.13232,5.58298 -4.68477,3.71233 -29.28895,15.60729 -38.68177,18.70081 -15.40367,5.07319 -14.56688,2.19144 -15.04263,51.80326 l -0.41142,42.9027 h -26.75868 -26.75869 v -38.60382 c 0,-24.22311 -0.57317,-40.24799 -1.53861,-43.0175 -1.16895,-3.35324 -2.77977,-4.75842 -6.70432,-5.84848 -3.18077,-0.88348 -32.25311,-1.43782 -75.66015,-1.44266 l -70.49447,-0.008 -3.95867,3.79265 -3.95868,3.79265 v 40.66751 40.66752 h -26.70661 -26.70661 z"
       id="path6084"
       transform="scale(0.26458333)" /><path
       style="fill:#0a3161;fill-opacity:1;fill-rule:evenodd;stroke:#000000;stroke-width:26.6621;stroke-linecap:round;stroke-dasharray:none;paint-order:stroke fill markers"
       d="m 260.40956,582.2165 v -31.75726 h 16.93721 16.93721 v 31.75726 31.75726 h -16.93721 -16.93721 z"
       id="path6086"
       transform="scale(0.26458333)" /><path
       style="fill:#0a3161;fill-opacity:1;fill-rule:evenodd;stroke:#000000;stroke-width:26.6621;stroke-linecap:round;stroke-dasharray:none;paint-order:stroke fill markers"
       d="m 476.35895,578.78303 v -35.19074 l 3.17573,-0.98278 c 1.74665,-0.54053 8.95236,-3.6697 16.01269,-6.95369 l 12.83697,-5.97091 0.92105,30.5001 c 0.50658,16.77505 0.92261,35.74004 0.92452,42.14442 l 0.003,11.64433 H 493.2957 476.35849 Z"
       id="path6088"
       transform="scale(0.26458333)" /><path
       sodipodi:type="star"
       style="fill:#000000;fill-opacity:0;fill-rule:evenodd;stroke:#ffffff;stroke-width:4.99801;stroke-linecap:round;stroke-dasharray:none;stroke-opacity:1;paint-order:stroke fill markers"
       id="path9556"
       inkscape:flatsided="false"
       sodipodi:sides="5"
       sodipodi:cx="14.564234"
       sodipodi:cy="34.730099"
       sodipodi:r1="5.6016283"
       sodipodi:r2="2.8008144"
       sodipodi:arg1="2.2142974"
       sodipodi:arg2="2.842616"
       inkscape:rounded="0"
       inkscape:randomized="0"
       d="m 11.203257,39.211401 0.684411,-3.656344 -2.6240054,-2.636638 3.6888844,-0.478959 1.69673,-3.310344 1.595445,3.360331 3.672643,0.590734 -2.702845,2.555758 0.573087,3.675437 -3.265895,-1.780786 z"
       inkscape:transform-center-x="-0.026279825"
       inkscape:transform-center-y="-0.50985293"
       transform="translate(44.813028,58.630378)" /><path
       sodipodi:type="star"
       style="fill:#000000;fill-opacity:0;fill-rule:evenodd;stroke:#ffffff;stroke-width:4.99801;stroke-linecap:round;stroke-dasharray:none;stroke-opacity:1;paint-order:stroke fill markers"
       id="path9556-5"
       inkscape:flatsided="false"
       sodipodi:sides="5"
       sodipodi:cx="14.564234"
       sodipodi:cy="34.730099"
       sodipodi:r1="5.6016283"
       sodipodi:r2="2.8008144"
       sodipodi:arg1="2.2142974"
       sodipodi:arg2="2.842616"
       inkscape:rounded="0"
       inkscape:randomized="0"
       d="m 11.203257,39.211401 0.684411,-3.656344 -2.6240054,-2.636638 3.6888844,-0.478959 1.69673,-3.310344 1.595445,3.360331 3.672643,0.590734 -2.702845,2.555758 0.573087,3.675437 -3.265895,-1.780786 z"
       inkscape:transform-center-x="-0.026279825"
       inkscape:transform-center-y="-0.50985293"
       transform="translate(68.660539,85.795109)" /><path
       sodipodi:type="star"
       style="fill:#000000;fill-opacity:0;fill-rule:evenodd;stroke:#ffffff;stroke-width:4.99801;stroke-linecap:round;stroke-dasharray:none;stroke-opacity:1;paint-order:stroke fill markers"
       id="path9556-1"
       inkscape:flatsided="false"
       sodipodi:sides="5"
       sodipodi:cx="14.564234"
       sodipodi:cy="34.730099"
       sodipodi:r1="5.6016283"
       sodipodi:r2="2.8008144"
       sodipodi:arg1="2.2142974"
       sodipodi:arg2="2.842616"
       inkscape:rounded="0"
       inkscape:randomized="0"
       d="m 11.203257,39.211401 0.684411,-3.656344 -2.6240054,-2.636638 3.6888844,-0.478959 1.69673,-3.310344 1.595445,3.360331 3.672643,0.590734 -2.702845,2.555758 0.573087,3.675437 -3.265895,-1.780786 z"
       inkscape:transform-center-x="-0.0207726"
       inkscape:transform-center-y="-0.40305153"
       transform="matrix(0.79052474,0,0,0.79052474,124.0043,54.863823)" /></g></svg>
